<?xml version="1.0"?>
<svg version="1.1" xmlns="http://www.w3.org/2000/svg" width="306" height="36" style=""><path fill="#" d="M32.28,19.6l-0.864-3.68s-1.696-0.64-4.096-0.64c-4.32,0-6.72,3.2-6.72,9.12c0,5.76,2.88,8.32,6.88,8.32c3.36,0,6.4-2.56,6.4-2.56l1.28,2.08s-3.2,3.36-8,3.36c-6.4,0-10.24-3.84-10.24-11.04c0-7.36,4.16-12,10.72-12c3.52,0,7.2,1.6,7.2,1.6l-0.16,5.44l-2.4,0z M47.9152,18c4.8,0,7.52,3.36,7.52,8.48c0,5.44-3.2,9.12-8,9.12s-7.68-2.88-7.68-8.64c0-5.44,3.36-8.96,8.16-8.96z M47.7552,20.56c-3.2,0-4.64,2.08-4.64,6.24c0,3.84,1.28,6.24,4.48,6.24s4.48-2.24,4.48-6.4c0-3.52-1.12-6.08-4.32-6.08z M71.7104,23.6l-0.48-2.72s-1.28-0.32-2.88-0.32c-3.04,0-4.8,1.92-4.8,5.92c0,4.32,1.92,6.56,4.96,6.56s4.96-1.92,4.96-1.92l1.12,1.92s-2.88,2.56-6.4,2.56c-5.28,0-8-3.36-8-8.8c0-5.12,3.2-8.8,8.32-8.8c2.88,0,5.44,1.28,5.44,1.28l-0.16,4.32l-2.08,0z M86.8656,24.72l2.4-4.032l-1.44-0.448l0-1.76l7.04-0.16l0,1.92l-2.272,0.384l-0.032,0l-3.296,4.896l4.128,7.2l0.032,0l2.4,0.8l0,1.76l-4.32,0l-4.576-8.16l-2.784,0l0,5.6l2.08,0.8l0,1.76l-8,0l0-1.76l2.72-0.8l0-19.52l-2.72-0.64l0-1.76l5.92-0.16l0,14.08l2.72,0z M109.8608,18.48l0,2.4l-4.64,0l0,10.272c0,1.472,0.704,1.952,1.6,1.952c0.768,0,1.664-0.352,2.496-0.8l0.864,1.696c-1.44,1.056-2.88,1.6-4.48,1.6c-1.92,0-3.68-1.056-3.68-4.64l0-10.08l-3.2,0l0-2.08l3.2-0.32l0-4.032l3.2-0.64l0,4.672l4.64,0z M115.576,23.28l-0.16-4s3.52-1.28,6.24-1.28c3.712,0,5.92,1.28,5.92,4.96l0,9.76l2.56,0.64l0,1.76l-4.96,0.16l-0.672-2.24c-1.088,1.088-3.008,2.56-5.248,2.56c-3.04,0-4.8-1.76-4.8-4.8c0-3.68,2.88-4.96,7.36-4.96l2.56,0l0-2.56c0-1.92-1.12-2.88-3.04-2.88s-3.232,0.48-3.232,0.48l-0.448,2.4l-2.08,0z M124.376,27.92l-2.24,0c-3.2,0-4.416,0.8-4.416,2.72c0,1.44,0.896,2.4,2.336,2.4c2.4,0,4.32-2.56,4.32-2.56l0-2.56z M136.6512,13.04c0-1.44,0.96-2.24,2.08-2.24c1.28,0,2.08,0.64,2.08,2.24c0,1.44-1.12,2.24-2.08,2.24c-1.28,0-2.08-0.8-2.08-2.24z M142.8912,33.52l0,1.76l-8.32,0l0-1.76l2.72-0.8l0-11.84l-2.72-0.64l0-1.76l5.92-0.16l0,14.4z M155.8704,33.52l0,1.76l-8.864,0l0-1.76l2.72-0.8l0-19.52l-2.72-0.64l0-1.76l5.984-0.16l0,22.08z M161.9376,30.16l0.352,2.752s0.96,0.288,2.688,0.288c1.92,0,3.616-0.544,3.616-2.528c0-3.456-8.928-1.856-8.928-7.68c0-3.328,2.56-4.992,5.856-4.992c2.528,0,5.472,0.96,5.472,0.96l-0.096,4.32l-2.08,0l-0.512-2.496s-0.992-0.384-2.592-0.384c-1.632,0-2.848,0.512-2.848,2.144c0,3.424,8.928,2.112,8.928,7.584c0,3.68-3.2,5.472-7.04,5.472c-2.944,0-5.056-0.704-5.056-0.704l0-4.736l2.24,0z"/><path fill="#29e34b" d="M183.7888,13.04c0-1.44,0.96-2.24,2.08-2.24c1.28,0,2.08,0.64,2.08,2.24c0,1.44-1.12,2.24-2.08,2.24c-1.28,0-2.08-0.8-2.08-2.24z M190.0288,33.52l0,1.76l-8.32,0l0-1.76l2.72-0.8l0-11.84l-2.72-0.64l0-1.76l5.92-0.16l0,14.4z M199.904,18.32l0.288,2.272c0.768-0.672,3.296-2.592,5.952-2.592c3.52,0,5.12,2.24,5.12,5.76l0,8.96l2.4,0.8l0,1.76l-7.68,0l0-1.76l2.08-0.8l0-8.64c0-2.24-0.8-3.36-2.88-3.36c-2.72,0-4.64,2.56-4.64,2.56l0,9.44l2.08,0.8l0,1.76l-8,0l0-1.76l2.72-0.8l0-11.84l-2.72-0.64l0-1.76z M221.1392,18.48l0-1.92c0-3.84,2.08-6.24,5.92-6.24c3.04,0,4.8,1.12,4.8,1.12l0,4l-2.24,0l-0.48-2.56s-0.8-0.16-1.92-0.16c-2.24,0-2.88,1.28-2.88,3.2l0,2.56l4.224,0l-0.096,2.4l-4.128,0l0,11.84l3.2,0.8l0,1.76l-9.12,0l0-1.76l2.72-0.8l0-11.84l-2.88,0l0-2.08z M241.7344,18c4.8,0,7.52,3.36,7.52,8.48c0,5.44-3.2,9.12-8,9.12s-7.68-2.88-7.68-8.64c0-5.44,3.36-8.96,8.16-8.96z M241.5744,20.56c-3.2,0-4.64,2.08-4.64,6.24c0,3.84,1.28,6.24,4.48,6.24s4.48-2.24,4.48-6.4c0-3.52-1.12-6.08-4.32-6.08z"/></svg>
